<?xml version="1.0" encoding="UTF-8" standalone="no"?>
<!-- Created with Inkscape (http://www.inkscape.org/) -->

<svg
   version="1.1"
   width="239.58549"
   height="358.8623"
   id="svg3289"
   xmlns="http://www.w3.org/2000/svg"
   xmlns:svg="http://www.w3.org/2000/svg"
   xmlns:rdf="http://www.w3.org/1999/02/22-rdf-syntax-ns#"
   xmlns:cc="http://creativecommons.org/ns#"
   xmlns:dc="http://purl.org/dc/elements/1.1/">
  <style
     id="style7">
.measure-arrow
{
}
.measure-label
{

}
.measure-line
{
}</style>
  <defs
     id="defs3291" />
  <metadata
     id="metadata3294">
    <rdf:RDF>
      <cc:Work
         rdf:about="">
        <dc:format>image/svg+xml</dc:format>
        <dc:type
           rdf:resource="http://purl.org/dc/dcmitype/StillImage" />
      </cc:Work>
    </rdf:RDF>
  </metadata>
  <g
     transform="translate(-137.35011,-81.482875)"
     id="layer1">
    <g
       transform="matrix(1.25,0,0,-1.25,-490.09094,1064.5902)"
       id="g3215">
      <path
         d="m 601.78684,785.95461 18.646,-5.664 v -30.836 0.865 l -18.646,5.664 -18.646,-5.664 v -0.865 30.836 z"
         id="path3171"
         style="fill:#231f20;fill-opacity:1;fill-rule:nonzero;stroke:none" />
      <g
         transform="translate(601.78684,785.95461)"
         id="g3173">
        <path
           d="M 0,0 18.646,-5.664 V -36.5 -35.635 L 0,-29.971 -18.646,-35.635 V -36.5 -5.664 Z"
           id="path3175"
           style="fill:none;stroke:#231f20;stroke-width:1;stroke-linecap:butt;stroke-linejoin:miter;stroke-miterlimit:10;stroke-dasharray:none;stroke-opacity:1" />
      </g>
      <path
         d="m 704.32039,725.7188 -0.26817,-36.24221 -20.70216,2.57981 -0.24398,-164.19445 -39.65158,-26.09727 0.82528,193.93283 -41.48538,6.39736 0.39379,54.69972 z"
         id="text5"
         style="font-stretch:condensed;font-size:266.666px;font-family:Impact;-inkscape-font-specification:'Impact Condensed';letter-spacing:0.072px;word-spacing:0px;stroke-width:0.8"
         aria-label="T"
         transform="matrix(0.91311904,0,0,0.9724822,49.837199,11.26245)" />
      <path
         style="font-weight:bold;font-stretch:condensed;font-size:266.666px;font-family:'Arial Narrow';-inkscape-font-specification:'Arial Narrow Bold Condensed';letter-spacing:0.072px;word-spacing:0px;stroke-width:0.8"
         d="m 261.65979,543.14551 0,192.78996 42.69197,17.73617 c 13.10837,5.4458 23.15207,7.46298 29.4816,5.66192 6.56821,-1.75731 12.16328,-7.39142 16.68236,-17.03312 4.6355,-9.77431 7.02336,-22.73803 7.07319,-38.71301 0.0631,-20.22744 -3.24942,-34.28999 -10.22461,-47.24312 C 340.72278,643.86766 332.49106,637.42135 321.27543,634 c 5.68001,-5.83947 5.15899,-5.81814 8.97406,-13.06342 3.9022,-7.30055 12.85272,-32.00795 20.19055,-52.61439 l 21.01923,-55.7231 -38.87078,10.54756 -3.91633,12.23806 c -6.99998,20.26476 -28.89717,83.89063 -31.01859,88.16182 -1.89784,5.25893 11.76353,-20.56662 8.56691,-21.96153 -2.46415,1.86431 -6.63636,23.0337 -11.78155,23.8024 l -5.82516,0.87029 1.64535,-91.06857 z m 25.33129,119.96328 14.94319,-2.37214 c 10.65124,-1.69082 12.55413,-0.30574 15.66578,1.54322 3.1703,1.9901 4.77159,6.88045 6.78591,11.89127 2.03791,5.0695 3.0574,11.57429 3.04053,19.46665 -0.0162,7.56421 -1.06102,13.35233 -3.11552,17.33034 -2.02974,4.03597 -3.86056,6.646 -7.235,7.34819 -2.34935,0.45424 -10.59479,-1.43687 -20.88019,-4.50923 l -8.93847,-2.67002 z"
         id="text6"
         aria-label="R"
         transform="matrix(0.99542426,0,0,0.9881653,242.48658,-6.6249551)" />
      <text
         xml:space="preserve"
         style="font-style:normal;font-variant:normal;font-weight:normal;font-stretch:normal;font-size:266.666px;font-family:'Bangla MN';-inkscape-font-specification:'Bangla MN';text-align:start;writing-mode:lr-tb;direction:ltr;text-anchor:start;fill:#000000;stroke-width:0.8"
         x="277.59906"
         y="-472.93118"
         id="text36"
         transform="scale(1,-1)"><tspan
           id="tspan35"
           style="stroke-width:0.8"
           x="277.59906"
           y="-472.93118" /></text>
    </g>
  </g>
</svg>
